# xmcd
#
# Track frame offsets:
#	150
#	9272
#	40635
#	55125
#	72944
#	95225
#	115719
#	125200
#	144928
#	165043
#	185328
#	200396
#	218047
#
# Disc length: 3198 seconds
#
# Revision: 0
# Processed by: cddbd v1.5.1PL0 Copyright (c) Steve Scherf et al.
# Submitted via: dBpowerAMP V4.0
#
DISCID=aa0c7c0d
DTITLE=Bluerunners - Honey Slides
DYEAR=2004
DGENRE=Zydeco
TTITLE0=Working Man's Zydeco
TTITLE1=The Gravedigger
TTITLE2=Coulee Rodair
TTITLE3=Ghost of a Girl
TTITLE4=I Got You
TTITLE5=Walking and Sighing
TTITLE6=Mardi Gras Jig
TTITLE7=Valse de Grand-Pere
TTITLE8=Kingsnake Crawl
TTITLE9=Voodoo Mens and Voodoo Dolls
TTITLE10=Lune de Minuit
TTITLE11=Black Cat Bone
TTITLE12=Big Head
EXTD=www.bayouvistarecords.com
EXTT0=
EXTT1=
EXTT2=
EXTT3=
EXTT4=
EXTT5=
EXTT6=
EXTT7=
EXTT8=
EXTT9=
EXTT10=
EXTT11=
EXTT12=
PLAYORDER=
